# xmcd
#
# Track frame offsets:
#	150
#	17128
#	31387
#	46864
#	59507
#	74441
#	92358
#	108096
#	124297
#	144161
#	158337
#
# Disc length: 2283 seconds
#
# Revision: 0
# Processed by: cddbd v1.5.2PL0 Copyright (c) Steve Scherf et al.
# Submitted via: dBpowerAMP V4.0
#
DISCID=8508e90b
DTITLE=Amber Leigh - reckless
DYEAR=1900
DGENRE=Country
TTITLE0=How It All Works Out
TTITLE1=That's What I Think About That
TTITLE2=Hey Cowboy
TTITLE3=I Don't Need You
TTITLE4=I'll Hang With You
TTITLE5=Love Is
TTITLE6=Honey Do
TTITLE7=I Shouldn't Love You (But I Do)
TTITLE8=My Favorite Color Was Blue
TTITLE9=Cowboy Kiss
TTITLE10=Unloved
EXTD=
EXTT0=
EXTT1=
EXTT2=
EXTT3=
EXTT4=
EXTT5=
EXTT6=
EXTT7=
EXTT8=
EXTT9=
EXTT10=
PLAYORDER=
